# xmcd
#
# Track frame offsets: 
#        150
#        19636
#        38417
#        56095
#        74017
#        90783
#        104901
#        125451
#        146419
#        165335
#        179722
#        208746
#
# Disc length: 3102 seconds
#
# Revision: 0
# Processed by: cddbd v1.5.2PL0 Copyright (c) Steve Scherf et al.
# Submitted via: ExactAudioCopy v0.99pb3
#
DISCID=a60c1c0c
DTITLE=Gretchen Peters - Burnt Toast And Offerings
DYEAR=2007
DGENRE=Country
TTITLE0=Ghost
TTITLE1=Sunday Morning (Up and Down My Street)
TTITLE2=Summer People
TTITLE3=Jezebel
TTITLE4=Thirsty
TTITLE5=England Blues
TTITLE6=The Lady Of The House
TTITLE7=One For My Baby
TTITLE8=The Way You Move Me
TTITLE9=This Town
TTITLE10=Breakfast At Our House
TTITLE11=To Say Goodbye
EXTD=
EXTT0=
EXTT1=
EXTT2=
EXTT3=
EXTT4=
EXTT5=
EXTT6=
EXTT7=
EXTT8=
EXTT9=
EXTT10=
EXTT11=
PLAYORDER=
